<svg xmlns="http://www.w3.org/2000/svg" viewBox="0 0 1440 320">
    <path
    fill="#fafafa"
    fillOpacity="1"
    d="M0,128L34.3,160C68.6,192,137,256,206,245.3C274.3,235,343,149,411,117.3C480,85,549,107,617,106.7C685.7,107,754,85,823,85.3C891.4,85,960,107,1029,96C1097.1,85,1166,43,1234,37.3C1302.9,32,1371,64,1406,80L1440,96L1440,0L1405.7,0C1371.4,0,1303,0,1234,0C1165.7,0,1097,0,1029,0C960,0,891,0,823,0C754.3,0,686,0,617,0C548.6,0,480,0,411,0C342.9,0,274,0,206,0C137.1,0,69,0,34,0L0,0Z"
    />
</svg>