<svg xmlns="http://www.w3.org/2000/svg" viewBox="0 0 1440 320">
<path
    fill="#ffff"
    fillOpacity="1"
    d="M0,224L30,197.3C60,171,120,117,180,106.7C240,96,300,128,360,165.3C420,203,480,245,540,229.3C600,213,660,139,720,112C780,85,840,107,900,117.3C960,128,1020,128,1080,149.3C1140,171,1200,213,1260,234.7C1320,256,1380,256,1410,256L1440,256L1440,0L1410,0C1380,0,1320,0,1260,0C1200,0,1140,0,1080,0C1020,0,960,0,900,0C840,0,780,0,720,0C660,0,600,0,540,0C480,0,420,0,360,0C300,0,240,0,180,0C120,0,60,0,30,0L0,0Z"
/>
</svg>